<?xml version="1.0" encoding="utf-8"?>
<!-- Generator: Adobe Illustrator 19.0.0, SVG Export Plug-In . SVG Version: 6.00 Build 0)  -->
<svg version="1.1" id="Layer_1" xmlns="http://www.w3.org/2000/svg" xmlns:xlink="http://www.w3.org/1999/xlink" x="0px" y="0px"
	 viewBox="-234 236 42 42" style="enable-background:new -234 236 42 42;" xml:space="preserve">
<g>
	<g>
		<g>
			<path d="M-214.6,262.7h-2.8V258h-4.1v4.7h-2.8v-10.8h2.8v3.9h4.1v-3.9h2.8V262.7z"/>
			<path d="M-204.8,262.6c0,0.5,0.1,0.8,0.4,1c0.2,0.2,0.7,0.3,1.2,0.3c0.2,0,0.4,0,0.7-0.1c0.3-0.1,0.5-0.1,0.6-0.2h0.3v1.9
				c-0.3,0.1-0.6,0.1-0.9,0.2c-0.3,0-0.8,0.1-1.4,0.1c-0.6,0-1.1-0.1-1.5-0.2c-0.4-0.1-0.8-0.3-1.1-0.6c-0.3-0.3-0.5-0.6-0.6-0.9
				c-0.1-0.3-0.2-0.7-0.2-1.2c-1.6-0.1-2.9-0.6-3.8-1.6c-0.9-1-1.4-2.3-1.4-4c0-1.7,0.5-3.1,1.5-4.1c1-1,2.3-1.5,4.1-1.5
				c1.7,0,3.1,0.5,4.1,1.5c1,1,1.5,2.4,1.5,4.1c0,1.3-0.3,2.4-0.9,3.3C-202.8,261.6-203.7,262.2-204.8,262.6z M-205.1,260
				c0.3-0.3,0.5-0.7,0.6-1.2c0.1-0.4,0.2-1,0.2-1.6c0-0.6-0.1-1.2-0.2-1.6c-0.1-0.5-0.3-0.8-0.6-1.1c-0.2-0.3-0.5-0.5-0.9-0.6
				c-0.3-0.1-0.7-0.2-1-0.2c-0.4,0-0.7,0.1-1,0.2s-0.6,0.3-0.9,0.6c-0.2,0.3-0.4,0.6-0.6,1.1c-0.2,0.5-0.2,1-0.2,1.7
				c0,0.6,0.1,1.2,0.2,1.6c0.1,0.5,0.3,0.8,0.6,1.1c0.2,0.3,0.5,0.5,0.8,0.6c0.3,0.1,0.7,0.2,1,0.2c0.4,0,0.7-0.1,1-0.2
				C-205.6,260.5-205.3,260.3-205.1,260z"/>
		</g>
	</g>
</g>
</svg>
